{"title":"Mia Malkova - Something Sexy - HdLove","uid":10995075,"size":396374832,"categoryP":"porn","categoryS":"movie_clips","magnet":"?xt=urn:btih:e9785da3424517e9767577f13b97f17125eab248&amp;dn=Mia+Malkova+-+Something+Sexy+-+HdLove+&amp;tr=udp%3A%2F%2Ftracker.openbittorrent.com%3A80&amp;tr=udp%3A%2F%2Fopen.demonii.com%3A1337&amp;tr=udp%3A%2F%2Ftracker.coppersurfer.tk%3A6969&amp;tr=udp%3A%2F%2Fexodus.desync.com%3A6969","seeders":6,"leechers":1,"uploader":"athklym","files":-1,"time":1410054229,"description":" &lt;a href=&quot;http://bayimg.com/kAafPaAge&quot; rel=&quot;nofollow&quot; target=&quot;_NEW&quot;&gt;http://bayimg.com/kAafPaAge&lt;/a&gt;\nMia_Malkova_Something_Sexy_HdLove.avi\nFormat                                   : AVI\nFormat/Info                              : Audio Video Interleave\nFile size                                : 378 MiB\nDuration                                 : 36mn 2s\nOverall bit rate                         : 1 466 Kbps\nWriting library                          : VirtualDub build 35491/release\n\nVideo\nID                                       : 0\nFormat                                   : AVC\nFormat/Info                              : Advanced Video Codec\nFormat profile                           : &lt;a class=&quot;__cf_email__&quot; href=&quot;/cdn-cgi/l/email-protection&quot; data-cfemail=&quot;480a293b2d2421262d08047b6678&quot;&gt;[email&amp;#160;protected]&lt;/a&gt;&lt;script cf-hash='f9e31' type=&quot;text/javascript&quot;&gt;\n/* &lt;![CDATA[ */!function(){try{var t=&quot;currentScript&quot;in document?document.currentScript:function(){for(var t=document.getElementsByTagName(&quot;script&quot;),e=t.length;e--;)if(t[e].getAttribute(&quot;cf-hash&quot;))return t[e]}();if(t&amp;&amp;t.previousSibling){var e,r,n,i,c=t.previousSibling,a=c.getAttribute(&quot;data-cfemail&quot;);if(a){for(e=&quot;&quot;,r=parseInt(a.substr(0,2),16),n=2;a.length-n;n+=2)i=parseInt(a.substr(n,2),16)^r,e+=String.fromCharCode(i);e=document.createTextNode(e),c.parentNode.replaceChild(e,c)}}}catch(u){}}();/* ]]&gt; */&lt;/script&gt;\nFormat settings, CABAC                   : No\nFormat settings, ReFrames                : 1 frame\nCodec ID                                 : AVC1\nDuration                                 : 36mn 2s\nBit rate                                 : 1 422 Kbps\nWidth                                    : 768 pixels\nHeight                                   : 432 pixels\nDisplay aspect ratio                     : 16:9\nFrame rate                               : 30.000 fps\nColor space                              : YUV\nChroma subsampling                       : 4:2:0\nBit depth                                : 8 bits\nScan type                                : Progressive\nBits/(Pixel*Frame)                       : 0.143\nStream size                              : 367 MiB (97%)\n\nAudio\nID                                       : 1\nFormat                                   : AAC\nFormat/Info                              : Advanced Audio Codec\nFormat profile                           : LC\nCodec ID                                 : FF\nDuration                                 : 36mn 2s\nBit rate                                 : 32.0 Kbps\nChannel(s)                               : 1 channel\nChannel positions                        : Front: C\nSampling rate                            : 32.0 KHz\nCompression mode                         : Lossy\nStream size                              : 8.25 MiB (2%)\nAlignment                                : Split accross interleaves\nInterleave, duration                     : 32 ms (0.96 video frame)\nInterleave, preload duration             : 512 ms","torrent":{"xt":"urn:btih:e9785da3424517e9767577f13b97f17125eab248","amp;dn":"Mia+Malkova+-+Something+Sexy+-+HdLove+","amp;tr":["udp%3A%2F%2Ftracker.openbittorrent.com%3A80","udp%3A%2F%2Fopen.demonii.com%3A1337","udp%3A%2F%2Ftracker.coppersurfer.tk%3A6969","udp%3A%2F%2Fexodus.desync.com%3A6969"],"infoHash":"e9785da3424517e9767577f13b97f17125eab248","infoHashBuffer":{"type":"Buffer","data":[233,120,93,163,66,69,23,233,118,117,119,241,59,151,241,113,37,234,178,72]},"announce":[],"urlList":[]}}